<svg width="252" height="84" viewBox="0 0 252 84" fill="none" xmlns="http://www.w3.org/2000/svg">
<g clip-path="url(#clip0_1585_8021)">
<path d="M231.283 0.00015093H20.0228C19.2528 0.00015093 18.4919 0.00015093 17.7239 0.00435093C17.081 0.00855093 16.4432 0.0207519 15.7941 0.0310209C14.384 0.0476147 12.9772 0.171671 11.5859 0.402112C10.1966 0.637569 8.85081 1.08147 7.59406 1.71881C6.33885 2.36154 5.19192 3.1967 4.1949 4.194C3.19264 5.18849 2.35717 6.33799 1.72063 7.59829C1.08234 8.85608 0.639745 10.2039 0.408135 11.5953C0.174323 12.9848 0.0485066 14.3904 0.031815 15.7995C0.012327 16.4433 0.010269 17.0893 0 17.7333V66.2732C0.010269 66.9253 0.012327 67.5569 0.031815 68.2092C0.0485117 69.6181 0.174328 71.0237 0.408135 72.4132C0.639105 73.8053 1.08173 75.154 1.72063 76.4122C2.35688 77.6685 3.19246 78.8133 4.1949 79.8023C5.18814 80.804 6.33581 81.6397 7.59406 82.2775C8.8508 82.9166 10.1964 83.3631 11.5859 83.6022C12.9774 83.8308 14.3841 83.9549 15.7941 83.9735C16.4432 83.9878 17.081 83.996 17.7239 83.996C18.4919 84.0002 19.2528 84.0002 20.0228 84.0002H231.283C232.038 84.0002 232.805 84.0002 233.559 83.996C234.199 83.996 234.856 83.9878 235.495 83.9735C236.903 83.9559 238.307 83.8318 239.695 83.6022C241.089 83.3614 242.44 82.915 243.703 82.2775C244.96 81.6393 246.106 80.8036 247.099 79.8023C248.099 78.8094 248.936 77.6654 249.58 76.4122C250.214 75.153 250.653 73.8045 250.88 72.4132C251.114 71.0235 251.245 69.6183 251.27 68.2092C251.278 67.5569 251.278 66.9253 251.278 66.2732C251.295 65.5103 251.295 64.7516 251.295 63.9762V20.026C251.295 19.257 251.295 18.4941 251.278 17.7333C251.278 17.0893 251.278 16.4433 251.27 15.7994C251.245 14.3902 251.114 12.9849 250.88 11.5952C250.652 10.2046 250.214 8.85691 249.58 7.5982C248.284 5.07206 246.228 3.0158 243.703 1.71862C242.44 1.08284 241.089 0.639056 239.695 0.401923C238.307 0.170467 236.903 0.0463672 235.495 0.0307269C234.856 0.0204789 234.199 0.00817293 233.559 0.00407793C232.805 -0.00012207 232.038 -0.00012207 231.283 -0.00012207V0.00015093Z" fill="#A6A6A6"/>
<path d="M17.7342 82.1625C17.0944 82.1625 16.47 82.1543 15.8352 82.14C14.5201 82.1229 13.2081 82.0084 11.91 81.7975C10.6995 81.589 9.52692 81.2013 8.43084 80.6469C7.34481 80.0972 6.35426 79.3764 5.49714 78.5121C4.62761 77.6579 3.90369 76.6673 3.35407 75.5794C2.79839 74.4845 2.41382 73.3108 2.21377 72.0993C1.99773 70.7975 1.88084 69.4813 1.86412 68.1618C1.8508 67.7189 1.83337 66.2443 1.83337 66.2443V17.7331C1.83337 17.7331 1.85194 16.2811 1.86422 15.8546C1.88024 14.5372 1.99644 13.223 2.21184 11.9232C2.41226 10.7084 2.79712 9.53137 3.3531 8.43282C3.90071 7.34568 4.62061 6.3543 5.4849 5.49712C6.34821 4.6318 7.34193 3.90726 8.42981 3.34993C9.52337 2.79739 10.6938 2.41233 11.9018 2.20766C13.2042 1.99465 14.5207 1.87949 15.8404 1.86313L17.7352 1.83749H233.549L235.467 1.86416C236.774 1.8797 238.079 1.99384 239.369 2.2056C240.59 2.41284 241.772 2.80059 242.878 3.35609C245.058 4.47926 246.831 6.25624 247.95 8.43794C248.497 9.52891 248.876 10.6964 249.074 11.9007C249.292 13.2111 249.414 14.5356 249.439 15.8638C249.445 16.4585 249.445 17.0974 249.445 17.7331C249.461 18.5206 249.461 19.2702 249.461 20.0259V63.9761C249.461 64.739 249.461 65.4835 249.445 66.234C249.445 66.9169 249.445 67.5425 249.437 68.1864C249.412 69.4908 249.292 70.7918 249.078 72.0787C248.882 73.2989 248.499 74.4818 247.944 75.5857C247.39 76.6618 246.67 77.6439 245.811 78.4957C244.953 79.3646 243.961 80.0897 242.872 80.6429C241.769 81.2015 240.588 81.5908 239.369 81.7975C238.071 82.0095 236.759 82.124 235.444 82.14C234.829 82.1543 234.185 82.1625 233.559 82.1625L231.283 82.1667L17.7342 82.1625Z" fill="black"/>
<path d="M52.0147 42.6314C52.0373 40.8787 52.5028 39.1601 53.3681 37.6356C54.2333 36.111 55.4701 34.8302 56.9634 33.9121C56.0148 32.5573 54.7633 31.4423 53.3084 30.6557C51.8534 29.8692 50.2351 29.4327 48.582 29.381C45.0556 29.0108 41.6369 31.4911 39.8399 31.4911C38.0081 31.4911 35.2414 29.4177 32.2621 29.479C30.3349 29.5413 28.4568 30.1017 26.8107 31.1056C25.1645 32.1095 23.8065 33.5227 22.8689 35.2076C18.8075 42.2392 21.837 52.5734 25.7275 58.2573C27.6739 61.0406 29.9488 64.1495 32.9255 64.0393C35.8383 63.9184 36.9262 62.1818 40.4422 62.1818C43.9256 62.1818 44.9463 64.0393 47.9833 63.9692C51.1089 63.9184 53.0782 61.1736 54.9564 58.364C56.3549 56.3808 57.4311 54.189 58.1451 51.8697C56.3292 51.1017 54.7796 49.8161 53.6894 48.1733C52.5992 46.5304 52.0168 44.6031 52.0147 42.6314V42.6314Z" fill="white"/>
<path d="M46.2782 25.6429C47.9824 23.597 48.822 20.9674 48.6187 18.3126C46.0151 18.586 43.61 19.8304 41.8828 21.7977C41.0383 22.7588 40.3915 23.877 39.9794 25.0882C39.5673 26.2994 39.3979 27.58 39.481 28.8567C40.7833 28.8701 42.0717 28.5878 43.249 28.0311C44.4264 27.4744 45.4622 26.6578 46.2782 25.6429Z" fill="white"/>
<path d="M88.8347 56.9932H78.8946L76.5075 64.0418H72.2972L81.7124 37.964H86.0867L95.5018 64.0418H91.2198L88.8347 56.9932ZM79.9241 53.7407H87.8033L83.9191 42.3014H83.8104L79.9241 53.7407Z" fill="white"/>
<path d="M115.835 54.5364C115.835 60.4447 112.673 64.2407 107.901 64.2407C106.692 64.3039 105.49 64.0255 104.432 63.4372C103.374 62.8489 102.503 61.9746 101.919 60.9143H101.828V70.3315H97.9258V45.029H101.703V48.1913H101.775C102.386 47.1361 103.272 46.2663 104.338 45.6744C105.404 45.0826 106.61 44.7907 107.829 44.83C112.654 44.8301 115.835 48.6445 115.835 54.5364ZM111.824 54.5364C111.824 50.6871 109.835 48.1564 106.8 48.1564C103.818 48.1564 101.812 50.7404 101.812 54.5364C101.812 58.3673 103.818 60.9328 106.8 60.9328C109.835 60.9328 111.824 58.4206 111.824 54.5364Z" fill="white"/>
<path d="M136.761 54.5364C136.761 60.4447 133.599 64.2407 128.827 64.2407C127.618 64.304 126.416 64.0255 125.358 63.4372C124.3 62.8489 123.429 61.9746 122.845 60.9143H122.755V70.3315H118.852V45.029H122.629V48.1913H122.701C123.312 47.1361 124.198 46.2663 125.264 45.6744C126.33 45.0826 127.536 44.7908 128.755 44.8301C133.581 44.8301 136.761 48.6445 136.761 54.5364ZM132.75 54.5364C132.75 50.6871 130.761 48.1564 127.726 48.1564C124.744 48.1564 122.738 50.7404 122.738 54.5364C122.738 58.3673 124.744 60.9328 127.726 60.9328C130.761 60.9328 132.75 58.4206 132.75 54.5364H132.75Z" fill="white"/>
<path d="M150.592 56.7759C150.881 59.3619 153.393 61.0599 156.826 61.0599C160.116 61.0599 162.482 59.3618 162.482 57.0301C162.482 55.0059 161.055 53.794 157.675 52.9634L154.296 52.1492C149.507 50.9926 147.284 48.7531 147.284 45.1191C147.284 40.6197 151.205 37.5292 156.773 37.5292C162.283 37.5292 166.061 40.6197 166.188 45.1191H162.249C162.013 42.5167 159.861 40.9458 156.718 40.9458C153.574 40.9458 151.422 42.5352 151.422 44.8484C151.422 46.6921 152.796 47.7769 156.158 48.6074L159.031 49.3129C164.381 50.5782 166.604 52.7275 166.604 56.5419C166.604 61.4207 162.718 64.4764 156.537 64.4764C150.754 64.4764 146.849 61.4925 146.597 56.7757L150.592 56.7759Z" fill="white"/>
<path d="M175.027 40.5296V45.029H178.642V48.1195H175.027V58.6011C175.027 60.2294 175.751 60.9882 177.34 60.9882C177.769 60.9807 178.198 60.9505 178.624 60.8979V63.9699C177.909 64.1035 177.183 64.1639 176.456 64.1504C172.607 64.1504 171.106 62.7046 171.106 59.0173V48.1195H168.341V45.029H171.106V40.5296H175.027Z" fill="white"/>
<path d="M180.736 54.5364C180.736 48.5543 184.26 44.7952 189.754 44.7952C195.266 44.7952 198.773 48.5542 198.773 54.5364C198.773 60.535 195.285 64.2776 189.754 64.2776C184.225 64.2776 180.736 60.535 180.736 54.5364ZM194.797 54.5364C194.797 50.4328 192.916 48.0109 189.754 48.0109C186.591 48.0109 184.713 50.4513 184.713 54.5364C184.713 58.6564 186.591 61.06 189.754 61.06C192.916 61.06 194.797 58.6564 194.797 54.5364H194.797Z" fill="white"/>
<path d="M201.991 45.029H205.713V48.2651H205.803C206.055 47.2544 206.647 46.3612 207.48 45.7356C208.313 45.1101 209.336 44.7903 210.376 44.83C210.826 44.8285 211.275 44.8773 211.714 44.9756V48.626C211.146 48.4525 210.553 48.3729 209.96 48.3902C209.393 48.3672 208.828 48.4672 208.303 48.6832C207.779 48.8993 207.307 49.2263 206.92 49.6419C206.534 50.0575 206.242 50.5517 206.065 51.0907C205.888 51.6297 205.829 52.2007 205.893 52.7645V64.0418H201.991L201.991 45.029Z" fill="white"/>
<path d="M229.707 58.4575C229.182 61.909 225.821 64.2776 221.52 64.2776C215.989 64.2776 212.556 60.5718 212.556 54.6266C212.556 48.663 216.008 44.7952 221.356 44.7952C226.616 44.7952 229.924 48.4087 229.924 54.1734V55.5105H216.496V55.7464C216.434 56.4461 216.521 57.151 216.753 57.8142C216.984 58.4775 217.354 59.084 217.838 59.5933C218.322 60.1027 218.908 60.5033 219.559 60.7685C220.209 61.0337 220.909 61.1575 221.61 61.1317C222.533 61.2181 223.458 61.0045 224.249 60.5227C225.04 60.0409 225.655 59.3166 226.001 58.4575L229.707 58.4575ZM216.514 52.783H226.02C226.055 52.1538 225.959 51.5242 225.739 50.9337C225.52 50.3432 225.18 49.8044 224.742 49.3513C224.304 48.8982 223.778 48.5405 223.195 48.3006C222.612 48.0608 221.986 47.944 221.356 47.9575C220.721 47.9537 220.091 48.0758 219.503 48.3168C218.914 48.5577 218.38 48.9128 217.93 49.3614C217.48 49.81 217.123 50.3434 216.88 50.9306C216.637 51.5179 216.513 52.1475 216.514 52.783V52.783Z" fill="white"/>
<path d="M74.3983 24.6042C74.3983 20.5406 76.5598 18.0305 80.0421 18.0305C81.2971 17.9683 82.5297 18.3803 83.495 19.1848C84.4604 19.9893 85.0879 21.1273 85.2531 22.373H83.3151C83.1525 21.6348 82.7356 20.9772 82.1374 20.5151C81.5391 20.0531 80.7974 19.8161 80.0421 19.8454C77.7924 19.8454 76.3855 21.6778 76.3855 24.6042C76.3855 27.5225 77.7924 29.3538 80.0503 29.3538C80.778 29.4083 81.502 29.2076 82.0978 28.7862C82.6936 28.3648 83.1241 27.749 83.3151 27.0447H85.2531C85.0641 28.2607 84.4234 29.3607 83.459 30.1252C82.4946 30.8897 81.2774 31.2623 80.0503 31.1688C76.5681 31.1688 74.3983 28.6596 74.3983 24.6042Z" fill="white"/>
<path d="M87.3818 26.1331C87.3224 25.5117 87.3934 24.8847 87.5905 24.2923C87.7876 23.7 88.1063 23.1554 88.5261 22.6934C88.946 22.2315 89.4578 21.8623 90.0287 21.6098C90.5996 21.3572 91.217 21.2267 91.8412 21.2267C92.4655 21.2267 93.0829 21.3572 93.6538 21.6098C94.2246 21.8623 94.7364 22.2315 95.1563 22.6934C95.5762 23.1554 95.8949 23.7 96.092 24.2923C96.289 24.8847 96.3601 25.5117 96.3007 26.1331C96.3612 26.7552 96.291 27.383 96.0945 27.9763C95.8979 28.5696 95.5794 29.1153 95.1594 29.5781C94.7394 30.041 94.2273 30.4109 93.6558 30.664C93.0843 30.9171 92.4662 31.0479 91.8412 31.0479C91.2162 31.0479 90.5981 30.9171 90.0267 30.664C89.4552 30.4109 88.943 30.041 88.523 29.5781C88.1031 29.1153 87.7846 28.5696 87.588 27.9763C87.3915 27.383 87.3212 26.7552 87.3818 26.1331V26.1331ZM94.3811 26.1331C94.3811 24.0834 93.4603 22.8847 91.8443 22.8847C90.2221 22.8847 89.3096 24.0834 89.3096 26.1331C89.3096 28.1993 90.2222 29.3887 91.8443 29.3887C93.4603 29.3887 94.3811 28.1911 94.3811 26.1331H94.3811Z" fill="white"/>
<path d="M98.8047 21.4091H100.601V22.9113H100.741C100.977 22.3718 101.376 21.9195 101.882 21.6175C102.388 21.3155 102.975 21.1789 103.563 21.2266C104.023 21.192 104.485 21.2614 104.914 21.4296C105.344 21.5978 105.73 21.8605 106.045 22.1983C106.359 22.536 106.593 22.9402 106.73 23.3808C106.867 23.8215 106.903 24.2872 106.836 24.7437V30.8652H104.969V25.2123C104.969 23.6927 104.309 22.937 102.929 22.937C102.616 22.9224 102.305 22.9756 102.015 23.0928C101.725 23.2101 101.464 23.3886 101.249 23.6162C101.035 23.8438 100.872 24.1151 100.772 24.4115C100.672 24.7079 100.638 25.0223 100.671 25.3333V30.8653H98.8047V21.4091Z" fill="white"/>
<path d="M113.179 21.2266C115.305 21.2266 116.696 22.2161 116.878 23.8834H115.088C114.916 23.1892 114.237 22.7462 113.179 22.7462C112.137 22.7462 111.345 23.2405 111.345 23.9787C111.345 24.5436 111.823 24.8996 112.849 25.1344L114.419 25.4984C116.218 25.9157 117.061 26.6888 117.061 28.0783C117.061 29.8583 115.402 31.0478 113.144 31.0478C110.894 31.0478 109.428 30.0316 109.262 28.3561H111.13C111.291 28.7549 111.581 29.088 111.954 29.3021C112.327 29.5161 112.761 29.5986 113.187 29.5363C114.35 29.5363 115.176 29.0155 115.176 28.2597C115.176 27.6958 114.733 27.3307 113.786 27.1051L112.137 26.7227C110.338 26.2971 109.506 25.4902 109.506 24.0833C109.506 22.4068 111.042 21.2266 113.179 21.2266Z" fill="white"/>
<path d="M119.417 19.828L121.597 16.841H123.785L121.345 19.828H119.417ZM119.61 21.4091H121.468V30.8653H119.61V21.4091Z" fill="white"/>
<path d="M124.374 31.8117H126.283C126.441 32.4977 127.231 32.9407 128.49 32.9407C130.044 32.9407 130.965 32.2024 130.965 30.9524V29.1375H130.826C130.533 29.6455 130.105 30.0628 129.59 30.3431C129.075 30.6234 128.493 30.7558 127.907 30.7258C125.494 30.7258 124.001 28.8596 124.001 26.0285C124.001 23.1452 125.51 21.2522 127.926 21.2522C128.526 21.2313 129.12 21.3758 129.644 21.6698C130.168 21.9639 130.601 22.3962 130.895 22.9195H131.043V21.4091H132.831V30.9431C132.831 33.1057 131.137 34.4777 128.463 34.4777C126.101 34.4778 124.573 33.4185 124.374 31.8117ZM131 26.0193C131 24.1356 130.026 22.9287 128.436 22.9287C126.831 22.9287 125.928 24.1356 125.928 26.0193C125.928 27.9039 126.831 29.1108 128.436 29.1108C130.036 29.1108 131 27.9132 131 26.0193V26.0193Z" fill="white"/>
<path d="M143.777 30.8653H141.979V29.3631H141.831C141.592 29.9082 141.187 30.3643 140.675 30.6667C140.162 30.969 139.567 31.1024 138.974 31.0478C138.517 31.0803 138.058 31.0099 137.631 30.8419C137.205 30.6739 136.821 30.4125 136.509 30.0768C136.196 29.7412 135.963 29.3399 135.826 28.9023C135.689 28.4647 135.652 28.002 135.717 27.5482V21.4091H137.586V27.0621C137.586 28.5899 138.201 29.32 139.573 29.32C139.891 29.3502 140.212 29.309 140.512 29.1994C140.812 29.0898 141.084 28.9146 141.308 28.6866C141.532 28.4585 141.702 28.1834 141.806 27.8812C141.91 27.5791 141.945 27.2576 141.909 26.9401V21.4091H143.777V30.8653Z" fill="white"/>
<path d="M154.747 28.312C154.493 29.1763 153.944 29.9238 153.195 30.4239C152.446 30.9241 151.545 31.1449 150.649 31.0478C150.026 31.0642 149.407 30.9449 148.835 30.6981C148.263 30.4513 147.751 30.0829 147.336 29.6185C146.92 29.1541 146.61 28.6048 146.428 28.0088C146.246 27.4128 146.196 26.7843 146.281 26.1669C146.198 25.5476 146.249 24.9178 146.431 24.32C146.613 23.7222 146.921 23.1704 147.334 22.7019C147.747 22.2334 148.257 21.8593 148.827 21.6047C149.398 21.3502 150.016 21.2212 150.641 21.2266C153.272 21.2266 154.86 23.0242 154.86 25.9936V26.6448H148.182V26.7494C148.153 27.0964 148.197 27.4457 148.31 27.7748C148.424 28.104 148.605 28.4058 148.842 28.6609C149.079 28.9159 149.367 29.1186 149.687 29.256C150.007 29.3933 150.352 29.4622 150.701 29.4584C151.147 29.512 151.599 29.4316 152 29.2274C152.401 29.0233 152.731 28.7046 152.95 28.312L154.747 28.312ZM148.182 25.2646H152.959C152.982 24.9472 152.939 24.6284 152.832 24.3287C152.725 24.029 152.556 23.755 152.337 23.5243C152.118 23.2936 151.853 23.1113 151.559 22.9891C151.265 22.867 150.949 22.8076 150.631 22.8149C150.308 22.8109 149.988 22.8715 149.689 22.9931C149.39 23.1148 149.118 23.2951 148.89 23.5234C148.662 23.7517 148.482 24.0234 148.36 24.3224C148.239 24.6215 148.178 24.9418 148.182 25.2646V25.2646Z" fill="white"/>
<path d="M157.452 17.7177H159.318V30.8652H157.452V17.7177Z" fill="white"/>
<path d="M161.912 26.1331C161.853 25.5117 161.924 24.8847 162.121 24.2923C162.318 23.7 162.637 23.1554 163.057 22.6934C163.477 22.2315 163.988 21.8623 164.559 21.6098C165.13 21.3572 165.747 21.2267 166.372 21.2267C166.996 21.2267 167.613 21.3572 168.184 21.6098C168.755 21.8623 169.267 22.2315 169.687 22.6934C170.107 23.1554 170.425 23.7 170.622 24.2923C170.82 24.8847 170.891 25.5117 170.831 26.1331C170.892 26.7552 170.822 27.383 170.625 27.9763C170.428 28.5696 170.11 29.1153 169.69 29.5781C169.27 30.041 168.758 30.4109 168.186 30.664C167.615 30.9171 166.997 31.0479 166.372 31.0479C165.747 31.0479 165.129 30.9171 164.557 30.664C163.986 30.4109 163.474 30.041 163.054 29.5781C162.634 29.1153 162.315 28.5696 162.119 27.9763C161.922 27.383 161.852 26.7552 161.912 26.1331V26.1331ZM168.912 26.1331C168.912 24.0834 167.991 22.8847 166.375 22.8847C164.753 22.8847 163.84 24.0834 163.84 26.1331C163.84 28.1993 164.753 29.3887 166.375 29.3887C167.991 29.3887 168.912 28.1911 168.912 26.1331H168.912Z" fill="white"/>
<path d="M186.462 28.312C186.209 29.1763 185.659 29.9238 184.91 30.4239C184.161 30.9241 183.26 31.1449 182.365 31.0478C181.742 31.0642 181.123 30.9449 180.55 30.6981C179.978 30.4513 179.466 30.0829 179.051 29.6185C178.635 29.1541 178.326 28.6048 178.144 28.0088C177.962 27.4128 177.911 26.7843 177.997 26.1669C177.914 25.5476 177.965 24.9178 178.146 24.32C178.328 23.7222 178.636 23.1704 179.049 22.7019C179.463 22.2334 179.972 21.8593 180.543 21.6047C181.113 21.3502 181.732 21.2212 182.357 21.2266C184.988 21.2266 186.575 23.0242 186.575 25.9936V26.6448H179.898V26.7494C179.868 27.0964 179.912 27.4457 180.026 27.7748C180.139 28.104 180.321 28.4058 180.558 28.6609C180.795 28.9159 181.083 29.1186 181.403 29.256C181.723 29.3933 182.068 29.4622 182.416 29.4584C182.862 29.512 183.315 29.4316 183.715 29.2274C184.116 29.0233 184.447 28.7046 184.666 28.312L186.462 28.312ZM179.898 25.2646H184.674C184.698 24.9472 184.654 24.6284 184.547 24.3287C184.44 24.029 184.272 23.755 184.053 23.5243C183.834 23.2936 183.568 23.1113 183.275 22.9891C182.981 22.867 182.665 22.8076 182.346 22.8149C182.024 22.8109 181.703 22.8714 181.404 22.9931C181.105 23.1148 180.834 23.2951 180.606 23.5234C180.377 23.7517 180.197 24.0234 180.076 24.3224C179.954 24.6215 179.894 24.9418 179.898 25.2646H179.898Z" fill="white"/>
<path d="M189.081 21.4091H190.878V22.9113H191.017C191.254 22.3718 191.653 21.9195 192.158 21.6175C192.664 21.3155 193.252 21.1789 193.839 21.2266C194.299 21.192 194.761 21.2614 195.191 21.4296C195.62 21.5978 196.007 21.8605 196.321 22.1983C196.635 22.536 196.87 22.9402 197.007 23.3808C197.143 23.8215 197.179 24.2872 197.112 24.7437V30.8652H195.246V25.2123C195.246 23.6927 194.585 22.937 193.205 22.937C192.893 22.9224 192.581 22.9756 192.291 23.0928C192.001 23.2101 191.74 23.3886 191.526 23.6162C191.311 23.8438 191.148 24.1151 191.049 24.4115C190.949 24.7079 190.914 25.0223 190.947 25.3333V30.8653H189.081V21.4091Z" fill="white"/>
<path d="M213.124 28.312C212.871 29.1763 212.322 29.9238 211.573 30.4239C210.823 30.9241 209.922 31.1449 209.027 31.0478C208.404 31.0642 207.785 30.9449 207.213 30.6981C206.64 30.4513 206.129 30.0829 205.713 29.6185C205.298 29.1541 204.988 28.6048 204.806 28.0088C204.624 27.4128 204.574 26.7843 204.659 26.1669C204.576 25.5476 204.627 24.9178 204.809 24.32C204.99 23.7222 205.298 23.1704 205.712 22.7019C206.125 22.2334 206.634 21.8593 207.205 21.6047C207.775 21.3502 208.394 21.2212 209.019 21.2266C211.65 21.2266 213.237 23.0242 213.237 25.9936V26.6448H206.56V26.7494C206.531 27.0964 206.574 27.4457 206.688 27.7748C206.802 28.104 206.983 28.4058 207.22 28.6609C207.457 28.9159 207.745 29.1186 208.065 29.256C208.385 29.3933 208.73 29.4622 209.078 29.4584C209.525 29.512 209.977 29.4316 210.378 29.2274C210.778 29.0233 211.109 28.7046 211.328 28.312L213.124 28.312ZM206.56 25.2646H211.336C211.36 24.9472 211.317 24.6284 211.21 24.3287C211.103 24.029 210.934 23.755 210.715 23.5243C210.496 23.2936 210.231 23.1113 209.937 22.9891C209.643 22.867 209.327 22.8076 209.009 22.8149C208.686 22.8109 208.365 22.8715 208.066 22.9932C207.767 23.1148 207.496 23.2952 207.268 23.5234C207.039 23.7517 206.859 24.0234 206.738 24.3224C206.616 24.6215 206.556 24.9418 206.56 25.2646H206.56Z" fill="white"/>
<path d="M215.829 17.7177H217.696V30.8652H215.829V17.7177Z" fill="white"/>
</g>
<defs>
<clipPath id="clip0_1585_8021">
<rect width="251.295" height="84" fill="white"/>
</clipPath>
</defs>
</svg>
